<svg id="Layer_1" data-name="Layer 1" xmlns="http://www.w3.org/2000/svg" viewBox="0 0 678.5 554"><defs><style>.cls-1{fill:#fff;}.cls-2{stroke:#fff;stroke-miterlimit:10;}</style></defs><title>LOGO(No text)</title><circle class="cls-1" cx="202.5" cy="202" r="201.5"/><path d="M547,47a201,201,0,0,1,78.24,386.2A201,201,0,0,1,468.76,62.8,199.58,199.58,0,0,1,547,47m0-1c-111.56,0-202,90.44-202,202s90.44,202,202,202,202-90.44,202-202S658.56,46,547,46Z" transform="translate(-344.5 -46)"/><circle class="cls-2" cx="204" cy="201.5" r="167"/><circle class="cls-1" cx="202" cy="201.5" r="115"/><circle class="cls-2" cx="204" cy="201.5" r="67"/><circle class="cls-1" cx="204" cy="203.5" r="26"/><line class="cls-1" x1="69" y1="50.5" x2="337" y2="352.5"/><line class="cls-1" x1="82" y1="364.5" x2="324" y2="40.5"/><line class="cls-1" y1="201.5" x2="404" y2="201.5"/><circle class="cls-1" cx="476.5" cy="202" r="201.5"/><path d="M821,47a201,201,0,0,1,78.24,386.2A201,201,0,0,1,742.76,62.8,199.58,199.58,0,0,1,821,47m0-1c-111.56,0-202,90.44-202,202s90.44,202,202,202,202-90.44,202-202S932.56,46,821,46Z" transform="translate(-344.5 -46)"/><circle class="cls-2" cx="478" cy="201.5" r="167"/><circle class="cls-1" cx="476" cy="201.5" r="115"/><circle class="cls-2" cx="478" cy="201.5" r="67"/><circle class="cls-1" cx="478" cy="203.5" r="26"/><line class="cls-1" x1="343" y1="50.5" x2="611" y2="352.5"/><line class="cls-1" x1="356" y1="364.5" x2="598" y2="40.5"/><line class="cls-1" x1="274" y1="201.5" x2="678" y2="201.5"/><circle class="cls-1" cx="338.5" cy="352" r="201.5"/><path d="M683,197a200.43,200.43,0,1,1-78.24,15.8A199.58,199.58,0,0,1,683,197m0-1c-111.56,0-202,90.44-202,202s90.44,202,202,202,202-90.44,202-202S794.56,196,683,196Z" transform="translate(-344.5 -46)"/><circle class="cls-2" cx="340" cy="351.5" r="167"/><circle class="cls-1" cx="338" cy="351.5" r="115"/><circle class="cls-2" cx="340" cy="351.5" r="67"/><circle class="cls-1" cx="340" cy="353.5" r="26"/><line class="cls-1" x1="205" y1="200.5" x2="473" y2="502.5"/><line class="cls-1" x1="218" y1="514.5" x2="460" y2="190.5"/><line class="cls-1" x1="136" y1="351.5" x2="540" y2="351.5"/></svg>