<?xml version="1.0" encoding="utf-8"?>
<!-- Generator: Adobe Illustrator 22.1.0, SVG Export Plug-In . SVG Version: 6.00 Build 0)  -->
<svg version="1.1" id="Layer_1" xmlns="http://www.w3.org/2000/svg" xmlns:xlink="http://www.w3.org/1999/xlink" x="0px" y="0px"
	 viewBox="0 0 1366 768" style="enable-background:new 0 0 1366 768;" xml:space="preserve">
<style type="text/css">
	.st0{fill:#FFFFFF;}
	.st1{stroke:#FFFFFF;stroke-miterlimit:10;}
	.st2{fill-rule:evenodd;clip-rule:evenodd;fill:#FFFFFF;}
	.st3{fill:none;}
	.st4{font-family:'MyriadPro-Regular';}
	.st5{font-size:108px;}
</style>
<g>
	<g>
		<circle class="st0" cx="547" cy="248" r="201.5"/>
		<path d="M547,47c27.1,0,53.5,5.3,78.2,15.8c23.9,10.1,45.4,24.6,63.9,43.1c18.5,18.5,33,40,43.1,63.9
			c10.5,24.8,15.8,51.1,15.8,78.2s-5.3,53.5-15.8,78.2c-10.1,23.9-24.6,45.4-43.1,63.9c-18.5,18.5-40,33-63.9,43.1
			C600.5,443.7,574.1,449,547,449s-53.5-5.3-78.2-15.8c-23.9-10.1-45.4-24.6-63.9-43.1c-18.5-18.5-33-40-43.1-63.9
			C351.3,301.5,346,275.1,346,248s5.3-53.5,15.8-78.2c10.1-23.9,24.6-45.4,43.1-63.9c18.5-18.5,40-33,63.9-43.1
			C493.5,52.3,519.9,47,547,47 M547,46c-111.6,0-202,90.4-202,202s90.4,202,202,202s202-90.4,202-202S658.6,46,547,46L547,46z"/>
	</g>
	<circle class="st1" cx="548.5" cy="247.5" r="167"/>
	<circle class="st0" cx="546.5" cy="247.5" r="115"/>
	<circle class="st1" cx="548.5" cy="247.5" r="67"/>
	<circle class="st0" cx="548.5" cy="249.5" r="26"/>
	<line class="st0" x1="413.5" y1="96.5" x2="681.5" y2="398.5"/>
	<line class="st0" x1="426.5" y1="410.5" x2="668.5" y2="86.5"/>
	<g>
		<line class="st2" x1="344.5" y1="247.5" x2="748.5" y2="247.5"/>
	</g>
</g>
<g>
	<g>
		<circle class="st0" cx="821" cy="248" r="201.5"/>
		<path d="M821,47c27.1,0,53.5,5.3,78.2,15.8c23.9,10.1,45.4,24.6,63.9,43.1c18.5,18.5,33,40,43.1,63.9
			c10.5,24.8,15.8,51.1,15.8,78.2s-5.3,53.5-15.8,78.2c-10.1,23.9-24.6,45.4-43.1,63.9c-18.5,18.5-40,33-63.9,43.1
			C874.5,443.7,848.1,449,821,449s-53.5-5.3-78.2-15.8c-23.9-10.1-45.4-24.6-63.9-43.1c-18.5-18.5-33-40-43.1-63.9
			C625.3,301.5,620,275.1,620,248s5.3-53.5,15.8-78.2c10.1-23.9,24.6-45.4,43.1-63.9c18.5-18.5,40-33,63.9-43.1
			C767.5,52.3,793.9,47,821,47 M821,46c-111.6,0-202,90.4-202,202s90.4,202,202,202s202-90.4,202-202S932.6,46,821,46L821,46z"/>
	</g>
	<circle class="st1" cx="822.5" cy="247.5" r="167"/>
	<circle class="st0" cx="820.5" cy="247.5" r="115"/>
	<circle class="st1" cx="822.5" cy="247.5" r="67"/>
	<circle class="st0" cx="822.5" cy="249.5" r="26"/>
	<line class="st0" x1="687.5" y1="96.5" x2="955.5" y2="398.5"/>
	<line class="st0" x1="700.5" y1="410.5" x2="942.5" y2="86.5"/>
	<g>
		<line class="st2" x1="618.5" y1="247.5" x2="1022.5" y2="247.5"/>
	</g>
</g>
<g>
	<g>
		<circle class="st0" cx="683" cy="398" r="201.5"/>
		<path d="M683,197c27.1,0,53.5,5.3,78.2,15.8c23.9,10.1,45.4,24.6,63.9,43.1c18.5,18.5,33,40,43.1,63.9
			c10.5,24.8,15.8,51.1,15.8,78.2s-5.3,53.5-15.8,78.2c-10.1,23.9-24.6,45.4-43.1,63.9c-18.5,18.5-40,33-63.9,43.1
			C736.5,593.7,710.1,599,683,599s-53.5-5.3-78.2-15.8c-23.9-10.1-45.4-24.6-63.9-43.1c-18.5-18.5-33-40-43.1-63.9
			C487.3,451.5,482,425.1,482,398s5.3-53.5,15.8-78.2c10.1-23.9,24.6-45.4,43.1-63.9c18.5-18.5,40-33,63.9-43.1
			C629.5,202.3,655.9,197,683,197 M683,196c-111.6,0-202,90.4-202,202s90.4,202,202,202s202-90.4,202-202S794.6,196,683,196L683,196
			z"/>
	</g>
	<circle class="st1" cx="684.5" cy="397.5" r="167"/>
	<circle class="st0" cx="682.5" cy="397.5" r="115"/>
	<circle class="st1" cx="684.5" cy="397.5" r="67"/>
	<circle class="st0" cx="684.5" cy="399.5" r="26"/>
	<line class="st0" x1="549.5" y1="246.5" x2="817.5" y2="548.5"/>
	<line class="st0" x1="562.5" y1="560.5" x2="804.5" y2="236.5"/>
	<g>
		<line class="st2" x1="480.5" y1="397.5" x2="884.5" y2="397.5"/>
	</g>
</g>
<rect x="361" y="603.3" class="st3" width="644" height="80.7"/>
<text transform="matrix(1 0 0 1 367.6978 679.9318)" class="st4 st5">DJT Industries</text>
</svg>
